<svg xmlns="http://www.w3.org/2000/svg" viewBox="0 0 308.37 51.23"><defs><style>.cls-1{fill:#efce4a;}.cls-2{fill:#fff;opacity:0.5;}</style></defs><title>Stars-4</title><g id="Laag_2" data-name="Laag 2"><g id="Capa_1" data-name="Capa 1"><polygon class="cls-1" points="26.93 0 35.26 16.86 53.87 19.57 40.4 32.7 43.58 51.23 26.93 42.48 10.29 51.23 13.47 32.7 0 19.57 18.61 16.86 26.93 0"/><polygon class="cls-1" points="89.93 0 98.26 16.86 116.87 19.57 103.4 32.7 106.58 51.23 89.93 42.48 73.29 51.23 76.47 32.7 63 19.57 81.61 16.86 89.93 0"/><polygon class="cls-1" points="153.93 0 162.26 16.86 180.87 19.57 167.4 32.7 170.58 51.23 153.93 42.48 137.29 51.23 140.47 32.7 127 19.57 145.61 16.86 153.93 0"/><polygon class="cls-1" points="217.93 0 226.26 16.86 244.87 19.57 231.4 32.7 234.58 51.23 217.93 42.48 201.29 51.23 204.47 32.7 191 19.57 209.61 16.86 217.93 0"/><polygon class="cls-2" points="281.43 0 289.76 16.86 308.37 19.57 294.9 32.7 298.08 51.23 281.43 42.48 264.79 51.23 267.97 32.7 254.5 19.57 273.11 16.86 281.43 0"/></g></g></svg>